<svg width="166" height="166" viewBox="0 0 166 166" fill="none" xmlns="http://www.w3.org/2000/svg">
  <defs>
    <linearGradient id="cpuGradient" x1="0%" y1="0%" x2="100%" y2="100%">
      <stop offset="0%" style="stop-color:#3B82F6;stop-opacity:1" />
      <stop offset="100%" style="stop-color:#9333EA;stop-opacity:1" />
    </linearGradient>
  </defs>
  
  <!-- CPU Icon -->
  <rect x="53" y="53" width="60" height="60" rx="6" fill="url(#cpuGradient)"/>
  <rect x="63" y="63" width="40" height="40" rx="3" fill="white" opacity="0.2"/>
  
  <!-- Top pins -->
  <rect x="65" y="33" width="8" height="15" rx="2" fill="url(#cpuGradient)"/>
  <rect x="79" y="33" width="8" height="15" rx="2" fill="url(#cpuGradient)"/>
  <rect x="93" y="33" width="8" height="15" rx="2" fill="url(#cpuGradient)"/>
  
  <!-- Bottom pins -->
  <rect x="65" y="118" width="8" height="15" rx="2" fill="url(#cpuGradient)"/>
  <rect x="79" y="118" width="8" height="15" rx="2" fill="url(#cpuGradient)"/>
  <rect x="93" y="118" width="8" height="15" rx="2" fill="url(#cpuGradient)"/>
  
  <!-- Left pins -->
  <rect x="33" y="65" width="15" height="8" rx="2" fill="url(#cpuGradient)"/>
  <rect x="33" y="79" width="15" height="8" rx="2" fill="url(#cpuGradient)"/>
  <rect x="33" y="93" width="15" height="8" rx="2" fill="url(#cpuGradient)"/>
  
  <!-- Right pins -->
  <rect x="118" y="65" width="15" height="8" rx="2" fill="url(#cpuGradient)"/>
  <rect x="118" y="79" width="15" height="8" rx="2" fill="url(#cpuGradient)"/>
  <rect x="118" y="93" width="15" height="8" rx="2" fill="url(#cpuGradient)"/>
</svg>
